<svg xmlns="http://www.w3.org/2000/svg" width="1164.603" height="1164.603" viewBox="0 0 1164.603 1164.603">
    <path id="Icon_ionic-md-male" d="M1033.6,3.375H675.261V137.752H938.7L639.987,436.182a401.924,401.924,0,0,0-233.481-74.467c-222.562,0-403.132,180.569-403.132,403.132s180.569,403.132,403.132,403.132S809.638,987.408,809.638,764.846a401.925,401.925,0,0,0-74.467-233.481L1033.6,232.656V496.092h134.377V3.375ZM406.507,1033.6c-148.095,0-268.754-120.659-268.754-268.754s120.66-268.755,268.754-268.755,268.755,120.66,268.755,268.755S554.6,1033.6,406.507,1033.6Z" transform="translate(-3.375 -3.375)"/>
</svg>
